<svg width="18" height="19" viewBox="0 0 18 19" fill="none" xmlns="http://www.w3.org/2000/svg">
<path d="M17.0001 5.66065L11.0001 0.940208C10.4501 0.498717 9.73803 0.254639 9.00009 0.254639C8.26216 0.254639 7.55012 0.498717 7.00009 0.940208L1.00009 5.66065C0.682463 5.91558 0.428995 6.22832 0.256567 6.57803C0.0841385 6.92775 -0.00329256 7.30642 9.47941e-05 7.68882V15.5323C9.47941e-05 16.2463 0.316165 16.9311 0.878775 17.436C1.44138 17.9409 2.20445 18.2246 3.00009 18.2246H15.0001C15.7957 18.2246 16.5588 17.9409 17.1214 17.436C17.684 16.9311 18.0001 16.2463 18.0001 15.5323V7.67985C18.0021 7.29895 17.9139 6.92201 17.7416 6.57394C17.5692 6.22587 17.3165 5.91458 17.0001 5.66065ZM11.0001 16.4297H7.00009V11.9426C7.00009 11.7046 7.10545 11.4763 7.29299 11.308C7.48052 11.1397 7.73488 11.0452 8.00009 11.0452H10.0001C10.2653 11.0452 10.5197 11.1397 10.7072 11.308C10.8947 11.4763 11.0001 11.7046 11.0001 11.9426V16.4297ZM16.0001 15.5323C16.0001 15.7703 15.8947 15.9986 15.7072 16.1669C15.5197 16.3352 15.2653 16.4297 15.0001 16.4297H13.0001V11.9426C13.0001 11.2286 12.684 10.5438 12.1214 10.0389C11.5588 9.53399 10.7957 9.25034 10.0001 9.25034H8.00009C7.20444 9.25034 6.44138 9.53399 5.87877 10.0389C5.31616 10.5438 5.00009 11.2286 5.00009 11.9426V16.4297H3.00009C2.73488 16.4297 2.48052 16.3352 2.29299 16.1669C2.10545 15.9986 2.00009 15.7703 2.00009 15.5323V7.67985C2.00027 7.55243 2.03069 7.4265 2.08931 7.31045C2.14794 7.1944 2.23343 7.09088 2.3401 7.00678L8.34009 2.29532C8.52258 2.15144 8.75719 2.0721 9.00009 2.0721C9.243 2.0721 9.47761 2.15144 9.66009 2.29532L15.6601 7.00678C15.7668 7.09088 15.8523 7.1944 15.9109 7.31045C15.9695 7.4265 15.9999 7.55243 16.0001 7.67985V15.5323Z" fill="#373867"/>
</svg>
