<svg width="19" height="18" viewBox="0 0 19 18" fill="none" xmlns="http://www.w3.org/2000/svg">
<path d="M17.8824 0.509155H15.6471C15.3506 0.509155 15.0664 0.621433 14.8568 0.821289C14.6472 1.02114 14.5294 1.29221 14.5294 1.57484C14.5294 1.85748 14.6472 2.12854 14.8568 2.3284C15.0664 2.52826 15.3506 2.64053 15.6471 2.64053H16.7647V15.4288H15.6471C15.3506 15.4288 15.0664 15.5411 14.8568 15.7409C14.6472 15.9408 14.5294 16.2119 14.5294 16.4945C14.5294 16.7771 14.6472 17.0482 14.8568 17.248C15.0664 17.4479 15.3506 17.5602 15.6471 17.5602H17.8824C18.1788 17.5602 18.4631 17.4479 18.6726 17.248C18.8822 17.0482 19 16.7771 19 16.4945V1.57484C19 1.29221 18.8822 1.02114 18.6726 0.821289C18.4631 0.621433 18.1788 0.509155 17.8824 0.509155ZM9.83529 4.1325C9.65744 3.90639 9.39267 3.7569 9.09924 3.71693C8.8058 3.67696 8.50772 3.74978 8.27059 3.91936C8.03345 4.08894 7.87668 4.3414 7.83476 4.6212C7.79284 4.901 7.86921 5.18521 8.04706 5.41132L10.0588 7.96898H1.11765C0.821229 7.96898 0.536951 8.08126 0.327351 8.28111C0.117752 8.48097 0 8.75203 0 9.03467C0 9.31731 0.117752 9.58837 0.327351 9.78822C0.536951 9.98808 0.821229 10.1004 1.11765 10.1004H10.1594L8.23706 12.7006C8.1513 12.8152 8.09018 12.9448 8.05723 13.082C8.02428 13.2192 8.02016 13.3612 8.0451 13.4999C8.07004 13.6386 8.12354 13.7713 8.20253 13.8902C8.28152 14.009 8.38442 14.1118 8.50529 14.1926C8.69529 14.3191 8.92182 14.3861 9.15353 14.3844C9.33084 14.3836 9.50542 14.3426 9.66283 14.2648C9.82025 14.187 9.95598 14.0746 10.0588 13.9368L13.2106 9.67408C13.3505 9.49157 13.4258 9.27137 13.4258 9.04532C13.4258 8.81927 13.3505 8.59908 13.2106 8.41657L9.83529 4.1325Z" fill="#373867"/>
</svg>
